<svg id="Layer_1" data-name="Layer 1" xmlns="http://www.w3.org/2000/svg" viewBox="0 0 74 66.28"><title>Untitled-s4</title><path d="M37.79,13.54H12.38A3.19,3.19,0,0,0,9.2,16.72V44.24a3.19,3.19,0,0,0,3.18,3.18H37.79A3.19,3.19,0,0,0,41,44.24V16.72A3.19,3.19,0,0,0,37.79,13.54ZM36.73,43.18H13.44V17.78H36.73V43.18ZM18.74,36H32.1v1.91H18.74V36Zm1.91-10.5a2.86,2.86,0,1,1,2.86,2.86A2.86,2.86,0,0,1,20.65,25.47Zm5.49,2.86H22.32c-1.57,0-2.86.86-2.86,1.91v1.91H29V30.24C29,29.19,27.71,28.33,26.14,28.33Z" style="fill:#fff"/><path d="M59.53,27.7a4.77,4.77,0,0,1,3.82,7.63l-1.91,1.91-6.68-6.68,1.91-1.91A4.75,4.75,0,0,1,59.53,27.7ZM35.67,49.65l-1.91,8.59,8.59-1.91L60,38.68,53.33,32ZM55.11,38.55L41.74,51.91,40.1,50.26,53.46,36.9Z" style="fill:#fff"/></svg>