<svg id="Layer_1" data-name="Layer 1" xmlns="http://www.w3.org/2000/svg" viewBox="0 0 74 66.28"><title>icon-ideate</title><path d="M27.14,3.58C27.21,5.34,33,6.93,33.3,10c0.53,5.85-6.81,6.83-6,9.57s14,0.76,23.14,2.78c4.7,1,10.84-.19,11.65-2.28,1-2.65-6-7.95-11-6.93-8.07,1.65-14.44,21.52-6.5,26.11,6.69,3.87,22.83-3.78,22.72-7-0.07-2-6.49-3.42-8.91-4A34.5,34.5,0,0,0,49,27.53c-5,.27-13.39.71-16.55,4.59-5,6.15,5.15,18.37,8,17.67,2.21-.54,2.73-9.29-1.17-10.79s-8.76,5.67-17.08,5.66c-7.81,0-17-6.37-15.91-13.26,0.78-5,6.93-10,11.5-9.63,3.22,0.24,3.45,3,10.23,8.29,3.95,3.1,6.23,4.9,10,5.78,0.57,0.13,10.24,2.29,16.1-2.76a10,10,0,0,0-.42-15.7c-4.67-3.56-12.33-3.54-17.18-1.18-6,2.93-10.45,12-12.41,23.13-0.62,3.54,13.92,7.19,14.22,13.09,0.28,5.64,1.69,1.53,7.29,11.79" style="fill:none;stroke:#fff;stroke-miterlimit:10;stroke-width:3px"/></svg>