<svg id="Layer_1" data-name="Layer 1" xmlns="http://www.w3.org/2000/svg" viewBox="0 0 74 66.28"><title>Untitled-4</title><path d="M37.9,51.84l1.64-.19a4,4,0,0,0,1.2-.46,38,38,0,0,1,3.76-1.45c0.57-.18,1.14-0.35,1.71-0.49a5.22,5.22,0,0,1,1-.12,0.63,0.63,0,0,1,.65.42,0.71,0.71,0,0,1-.17.81,3.06,3.06,0,0,1-1,.62,14.24,14.24,0,0,1-2.36.82q-1.27.33-2.56,0.62c-0.47.11-.95,0.17-1.42,0.26a1,1,0,0,0-.26.1,10.88,10.88,0,0,0-1.77,1,0.34,0.34,0,0,0-.12.16c0.26,0,.52,0,0.78,0,0.48,0,1-.13,1.45-0.18a3.53,3.53,0,0,0,1.06-.4,36.81,36.81,0,0,1,3.95-1.55,12.24,12.24,0,0,1,1.41-.36,1.63,1.63,0,0,1,.69,0,0.63,0.63,0,0,1,.34,1,1.66,1.66,0,0,1-.59.47c-0.62.28-1.25,0.54-1.89,0.75a31,31,0,0,1-3.76,1,3.21,3.21,0,0,0-1,.36L39.07,56a1.45,1.45,0,0,0-.16.13v0.05c0.34,0,.68,0,1,0a26.61,26.61,0,0,0,3.83-.62c0.28-.06.56-0.12,0.83-0.21a1.21,1.21,0,0,0,.4-0.22,8.57,8.57,0,0,1,1.72-1.23,2.3,2.3,0,0,1,.75-0.23,0.68,0.68,0,0,1,.69.43,0.73,0.73,0,0,1-.08.88,3.43,3.43,0,0,1-.73.58,8.38,8.38,0,0,1-1.76.71,0.64,0.64,0,0,0-.25.14l-1.49,1.47a0.57,0.57,0,0,1-1-.2A0.53,0.53,0,0,1,43,57l0.24-.26H43.1c-0.91.14-1.81,0.3-2.73,0.42a5.92,5.92,0,0,1-1.89,0,3.22,3.22,0,0,1-.4-0.12,0.86,0.86,0,0,1-.36-1.38c0.19-.21.39-0.4,0.6-0.6A2.48,2.48,0,0,1,37.94,55a2.79,2.79,0,0,1-.63-0.23A0.86,0.86,0,0,1,37,53.56a4.21,4.21,0,0,1,.42-0.49L37.56,53a7.25,7.25,0,0,1-.73-0.1,0.84,0.84,0,0,1-.73-0.72,0.54,0.54,0,0,1,.15-0.49,4.93,4.93,0,0,1,.69-0.58,13.1,13.1,0,0,1,2.37-1.18c1.24-.49,2.5-1,3.76-1.43s2.42-.82,3.63-1.21c0.14,0,.11-0.13.1-0.21,0-.53-0.07-1.07-0.09-1.6,0-1-.11-2.07-0.13-3.11,0-1.35,0-2.71,0-4.06a12.79,12.79,0,0,1,.5-3.16c0.43-1.58.86-3.17,1.16-4.78a20.67,20.67,0,0,0,.38-4.3,11.78,11.78,0,0,0-.49-3.25A11.23,11.23,0,0,0,37.48,15a15.06,15.06,0,0,0-2.87.25,11,11,0,0,0-5.94,3,12.65,12.65,0,0,0-3.24,5.38,11.83,11.83,0,0,0-.57,3.63,9.12,9.12,0,0,0,.39,2.41,19.16,19.16,0,0,0,4,7.09c0.61,0.73,1.25,1.42,1.87,2.13a23.49,23.49,0,0,1,3,4.64,33.52,33.52,0,0,1,1.76,4.09c0,0.08.05,0.12,0.15,0.1l4.66-1,0,0a36.55,36.55,0,0,0-2.61-9.31,3.42,3.42,0,0,1-1.75.3,4.86,4.86,0,0,1-2.94-1.37A4.4,4.4,0,0,1,32,34a3.65,3.65,0,0,1,.66-3.16,2.1,2.1,0,0,1,3.2-.17,5.44,5.44,0,0,1,1,1.51c0.55,1.06,1.06,2.15,1.59,3.22l0.07,0.15a4.52,4.52,0,0,0,.64-1.2c0.37-1.08.71-2.18,1.07-3.26,0.25-.74.51-1.48,0.8-2.21a2.73,2.73,0,0,1,.44-0.7A1.48,1.48,0,0,1,43.82,28a2.16,2.16,0,0,1,.7,1.82,6.06,6.06,0,0,1-.64,2.36,17.63,17.63,0,0,1-3.94,5.38,2.34,2.34,0,0,1-.38.24l0.35,0.94a26.64,26.64,0,0,1,1.19,3.94c0.29,1.43.57,2.86,0.88,4.28a0.62,0.62,0,0,1-.53.81L36,48.84l-0.3.06A0.59,0.59,0,0,1,35,48.46a30.58,30.58,0,0,0-3.71-7.53,27.34,27.34,0,0,0-2.14-2.58,27.5,27.5,0,0,1-3.31-4.49,18.76,18.76,0,0,1-1.58-3.6,11.2,11.2,0,0,1-.13-6.36,14.22,14.22,0,0,1,1.94-4.41,12.22,12.22,0,0,1,5.59-4.64A13.82,13.82,0,0,1,34.91,14a13.48,13.48,0,0,1,7.24.73,12.21,12.21,0,0,1,6.3,5.83,11.27,11.27,0,0,1,1.18,3.77,18.61,18.61,0,0,1-.26,6.18c-0.29,1.44-.62,2.87-1,4.28a17.25,17.25,0,0,0-.66,5.09c0,1.82.09,3.65,0.15,5.47,0,0.73.08,1.47,0.12,2.2a0.57,0.57,0,0,1-.42.61c-1.3.44-2.61,0.85-3.9,1.32-1.56.57-3.1,1.18-4.64,1.78-0.35.13-.68,0.31-1,0.47l-0.11.07v0ZM37.74,36.3c-0.45-.94-0.88-1.86-1.34-2.77-0.29-.57-0.63-1.11-1-1.65a1.78,1.78,0,0,0-.28-0.35,1,1,0,0,0-1.72.24,2.5,2.5,0,0,0-.2,2.24,3.85,3.85,0,0,0,3.12,2.53A2.14,2.14,0,0,0,37.74,36.3Zm1.58,0.24,0.07-.06a16.31,16.31,0,0,0,3.5-4.9,4.84,4.84,0,0,0,.5-1.85,1,1,0,0,0-.26-0.84c-0.34-.31-0.49-0.28-0.73,0a0.7,0.7,0,0,0-.09.13c-0.2.48-.44,0.94-0.6,1.43-0.35,1.06-.65,2.13-1,3.19A8.69,8.69,0,0,1,39.31,36.54Z" style="fill:#fff;stroke:#fff;stroke-miterlimit:10"/></svg>