<svg id="Layer_1" data-name="Layer 1" xmlns="http://www.w3.org/2000/svg" viewBox="0 0 74 66.28"><title>icon-1-01</title><path d="M31,45.52A15.52,15.52,0,0,1,41.12,31a12.89,12.89,0,0,0,1.14-5.19c0-7,0-12.68-8.45-12.68s-8.45,5.68-8.45,12.68c0,4.36,2.53,8.72,5.64,10.47V38.6c-9.56.78-16.91,5.48-16.91,11.15H31.58A15.5,15.5,0,0,1,31,45.52Z" style="fill:#fff"/><path d="M29.9,45.66c0-.19-0.17-0.12-0.21-0.15C29.74,45.83,30,45.65,29.9,45.66Z" style="fill:#fff"/><path d="M30.58,48.33l-0.09,0,0.26,0.33Z" style="fill:#fff"/><path d="M29.87,49.07a0.45,0.45,0,0,0,.48.11,0.93,0.93,0,0,1,.48-0.06H30.9L30.73,49l-0.17-.17L30.62,49A0.94,0.94,0,0,1,29.87,49.07Z" style="fill:#fff"/><path d="M28.69,48.38c0.09,0.12-.31.11,0.34,0H28.69Z" style="fill:#fff"/><path d="M29,48.39c0.28,0-.19-0.1,0,0h0Z" style="fill:#fff"/><path d="M27.66,48.46L28,48.35c-0.08-.07-0.41-0.09-0.29-0.14C27.36,48.27,27.44,48.34,27.66,48.46Z" style="fill:#fff"/><path d="M27.3,48.7h0.19A0.13,0.13,0,0,0,27.3,48.7Z" style="fill:#fff"/><path d="M27.91,48.55l-0.41.1s0.06,0.16.19,0C27.65,48.71,27.73,48.62,27.91,48.55Z" style="fill:#fff"/><path d="M28.14,48.6c0.21,0.07.48,0.11,0.11,0.22C29,48.78,28.86,48.55,28.14,48.6Z" style="fill:#fff"/><path d="M29.89,49.4l0.27,0.09,0.14-.11A1.07,1.07,0,0,0,29.89,49.4Z" style="fill:#fff"/><path d="M25.32,48.3a0.9,0.9,0,0,0,.15.27l0.28-.08A0.75,0.75,0,0,1,25.32,48.3Z" style="fill:#fff"/><path d="M25.48,48.57l-0.41.12C25.43,48.7,25.5,48.64,25.48,48.57Z" style="fill:#fff"/><polygon points="27.23 49.05 27.91 48.8 27.1 49.05 27.23 49.05" style="fill:#fff"/><polygon points="23.74 48.29 23.98 48.13 23.56 48.37 23.74 48.29" style="fill:#fff"/><path d="M22.69,48.32c0.17-.13-0.24-0.22,0-0.3a2.2,2.2,0,0,0-.75.24A1.41,1.41,0,0,1,22.69,48.32Z" style="fill:#fff"/><path d="M21.52,48.4a2.52,2.52,0,0,0,.37-0.15A1.3,1.3,0,0,0,21.52,48.4Z" style="fill:#fff"/><path d="M24.36,48.65a0.45,0.45,0,0,0-.36-0.2l0.16,0.19h0.2Z" style="fill:#fff"/><path d="M24.4,48.65h0Z" style="fill:#fff"/><path d="M26.15,48.88c-0.24.11-.75,0.22-0.26,0.38C26.06,49.13,25.78,49,26.15,48.88Z" style="fill:#fff"/><path d="M24.6,48.89H25s-0.09-.12,0-0.18Z" style="fill:#fff"/><polygon points="24.39 48.95 24.6 48.89 24.44 48.87 24.39 48.95" style="fill:#fff"/><path d="M22.28,48.58a1.81,1.81,0,0,1-.63.1,5.14,5.14,0,0,0,.76.06C22.44,48.68,22.55,48.57,22.28,48.58Z" style="fill:#fff"/><path d="M23.21,48.63h0Z" style="fill:#fff"/><polygon points="19.34 48.68 19.37 48.71 19.38 48.68 19.34 48.68" style="fill:#fff"/><path d="M22.45,48.77a0.55,0.55,0,0,0,.41-0.07H22.41S22.39,48.78,22.45,48.77Z" style="fill:#fff"/><path d="M20.88,48.49l0.33,0.11A0.46,0.46,0,0,0,20.88,48.49Z" style="fill:#fff"/><path d="M23.11,48.59h0S23.08,48.56,23.11,48.59Z" style="fill:#fff"/><path d="M23.11,48.59a1.18,1.18,0,0,0-.25.12l0.31-.06Z" style="fill:#fff"/><path d="M18.64,49.91a0.78,0.78,0,0,1,1-.15c0.42-.13.15-0.72-0.22-1,0,0.08,0,.15-0.45.25,0.15,0.1,1,.23.6,0.39a0.81,0.81,0,0,1-.75-0.16c0.24,0.22-.73.32-0.61,0.65l0.5-.11S18.5,49.86,18.64,49.91Z" style="fill:#fff"/><path d="M20.2,48.73h0.18a1.9,1.9,0,0,1-.62-0.24,0.49,0.49,0,0,0-.38.21h0.88Z" style="fill:#fff"/><path d="M21.18,48.71c-0.14.19-.57,0.27-0.31,0.48a1.25,1.25,0,0,0,.68-0.24c-0.85,0,.24-0.11-0.37-0.22a3.24,3.24,0,0,1,.46,0l-0.44-.09h0a0.19,0.19,0,0,1,0,.07c-0.25,0,0,0,0-.07h0l-0.85.11A4.25,4.25,0,0,0,21.18,48.71Z" style="fill:#fff"/><path d="M25.44,49.68h0C25.36,49.65,25.33,49.67,25.44,49.68Z" style="fill:#fff"/><path d="M25.09,49.56a0.42,0.42,0,0,1,.31-0.08c0.17,0.06,0,.09,0,0.16s0.42-.14,0-0.23H25.34a1.41,1.41,0,0,1-.72-0.33A1.34,1.34,0,0,0,25.09,49.56Z" style="fill:#fff"/><path d="M23.11,49.18l-0.71.09,0.36,0.17v-0.1C23.15,49.38,23.06,49.26,23.11,49.18Z" style="fill:#fff"/><polygon points="19.25 48.58 19.35 48.38 18.94 48.67 19.25 48.58" style="fill:#fff"/><polygon points="18.34 48.61 18.37 48.43 18.13 48.54 18.34 48.61" style="fill:#fff"/><path d="M26.55,14.67a1.29,1.29,0,0,1,.13-0.22A0.65,0.65,0,0,0,26.55,14.67Z" style="fill:#fff"/><path d="M25.57,16.13l0.06,0.08C25.62,16.11,25.61,16.07,25.57,16.13Z" style="fill:#fff"/><path d="M27.56,40.19c0.32,0.1.68,0.31,0.61,0.12L28,40.13A1.21,1.21,0,0,1,27.56,40.19Z" style="fill:#fff"/><path d="M25.69,28.75v0.1L25.88,29Z" style="fill:#fff"/><path d="M24.86,28.72V28.28A1.53,1.53,0,0,0,24.86,28.72Z" style="fill:#fff"/><path d="M35,11.9l0.28-.18C34.91,11.69,35.09,11.8,35,11.9Z" style="fill:#fff"/><path d="M16.73,45.7c0.19-.14.35-0.25,0.47-0.36C16.91,45.46,16.65,45.54,16.73,45.7Z" style="fill:#fff"/><path d="M27.81,16.41a0.16,0.16,0,0,0,0-.19C27.76,16.33,27.76,16.4,27.81,16.41Z" style="fill:#fff"/><path d="M17.66,44.85l-0.12.06a2.11,2.11,0,0,1-.35.43A0.73,0.73,0,0,0,17.66,44.85Z" style="fill:#fff"/><path d="M30.36,42.87a0.91,0.91,0,0,1,.06-0.37A1.25,1.25,0,0,0,30.36,42.87Z" style="fill:#fff"/><path d="M15.73,49.29a0.21,0.21,0,0,0-.09.09A0.27,0.27,0,0,1,15.73,49.29Z" style="fill:#fff"/><path d="M15.72,48.61a0.13,0.13,0,0,0,0-.06A0.08,0.08,0,0,0,15.72,48.61Z" style="fill:#fff"/><path d="M15.77,48.52h0Z" style="fill:#fff"/><path d="M15.61,48.53a0.11,0.11,0,0,1,.08,0H15.61Z" style="fill:#fff"/><path d="M42.82,22.85h0C42.89,23.09,42.87,23,42.82,22.85Z" style="fill:#fff"/><polygon points="30.09 37.2 30.1 37.21 30.11 37.2 30.09 37.2" style="fill:#fff"/><path d="M29.94,36.93a0.39,0.39,0,0,1,.19.07h0a1.3,1.3,0,0,1,0,.16s0.56-.22.56-0.21A1.85,1.85,0,0,0,29.94,36.93Z" style="fill:#fff"/><path d="M30.08,12.47H29.49C30,12,30.59,12,30,11.88c0,0.32-.49.42-1,0.7a4.57,4.57,0,0,0-.7.38,0.42,0.42,0,0,0-.2.45l-0.39.1c0.1-.06.09-0.1,0.19-0.15-0.81.18-.22,0.66-1,1.22-0.28.18-.46,0.34-0.38,0.1l-0.33.68c-0.14.16-.2,0.06-0.06-0.1a8.7,8.7,0,0,0-.53,1V17c-0.18.22,0-.15-0.11-0.11l-0.07.59c-0.23.17-.21-0.33,0-0.71-0.76.31-.08,0.51-0.71,1.54l0.07-.56A2.87,2.87,0,0,0,24,19c0.12-.14.78-1.12,0.79-0.47a1.15,1.15,0,0,0-.08.73c-0.21,0-.23.3-0.25,0.7l-0.28-.06a1.43,1.43,0,0,0,.28.69,0.73,0.73,0,0,1-.49.65c-0.1.76,0.39-.5,0.38,0.4a3.79,3.79,0,0,0,.11,1.81c-0.1.43-.17-0.08-0.26,0.08l0.22,0.39c0,0.09-.08.06-0.11,0,0.08,0.32.29,0,.36,0.54,0.32,0.15-.48,1-0.09,1.68-0.08.17-.18-0.07-0.29,0A4.19,4.19,0,0,0,25,27.63l-0.08.65c0.13-.49.47,0,0.8,0.47,0.06-.18.12-0.32,0.14-0.42L26,28.68c0.08,0.18.17,0.35,0.17,0.35a0.41,0.41,0,0,1-.29,0L26,29.12c0,0.29-.22.21-0.43,0a3.17,3.17,0,0,1,.1-0.32,0.72,0.72,0,0,0-.6-0.21,0.79,0.79,0,0,1,.14.24c-0.06,0-.11-0.06-0.13,0a0.4,0.4,0,0,0,.16.21L25,29.33h0.1l0.06,0.55a5.11,5.11,0,0,0,.08.55,19.65,19.65,0,0,1,2,2c-0.35-.13-0.36.14-0.61,0.27,0.08-.43-0.58-0.76-0.78-1.38,0.11,0.32,0,.31-0.12.25a1.3,1.3,0,0,0,.37.46l0.38,0.44c-0.21.09,0,.29,0,0.6,0.26-.42.7,0.56,1.1,0.84-0.09.09-.3,0.09-0.58-0.4,0.08,0.72.89,0.34,1,1a0.29,0.29,0,0,0-.22-0.16c0.31,0.16.75,0.81,0.54,0.76l-0.1-.1a6.16,6.16,0,0,0,1.33,1.17,1.42,1.42,0,0,0,.58.26,0.87,0.87,0,0,0,.42,0L30,36.68h0.3a1.06,1.06,0,0,1,.44.21,2.31,2.31,0,0,1,.44.5c0.12,0.18.2,0.33,0.2,0.33a2.32,2.32,0,0,0-.7-0.15,1.13,1.13,0,0,1-.59-0.31,0.39,0.39,0,0,0,0,.36,0.59,0.59,0,0,1,.5.19l-0.27.14s0,0-.1,0l-0.36-.12c0.19,0,.48.53,0.16,0.55a4.07,4.07,0,0,1-.3-0.53,1,1,0,0,1-.12.27,1.81,1.81,0,0,1-.22.28c0.14-.11-0.12-0.42-0.24-0.55a4,4,0,0,1-.88.18l0.37,0.06c-1,.09-0.82.82-1.72,1,0.09-.13.15-0.69-0.34-0.64a4.89,4.89,0,0,1-1.38,1.83L25,40.16l-0.54.33a8.81,8.81,0,0,1,1.62-2,0.82,0.82,0,0,0-.66,0c-0.22-.08.23-0.29,0.39-0.32a2.13,2.13,0,0,0-.63.11l-0.63.13c0.14,0.27-.85.55-0.72,0.79,0,0,.3-0.19.61-0.35l0.62-.34c0.13,0.29-.54,1-1.37,1.25-0.25,0,0-.56-0.06-0.65a1.75,1.75,0,0,1-.84.42l0.3-.28c-0.52,0-.62.64-1.28,0.61a1.13,1.13,0,0,0-.69.06A1.82,1.82,0,0,1,22,41.37a9.4,9.4,0,0,1-1.34.09c-0.28,0,.15-0.8-0.2-0.87a0.54,0.54,0,0,1-.15.32c-0.23,0,0-.27-0.44,0,0.07,0.29-.84.47-0.07,0.33a5.07,5.07,0,0,1-.91.48c0.24,0.07,0,.81-0.34,1.15a0.28,0.28,0,0,0-.23-0.11l-1,.64a4.42,4.42,0,0,0-.87.7c-0.11,0-.46.25-0.44,0a1.12,1.12,0,0,1-.23.48c-0.26.13-.18,0-0.08-0.15s0.21-.28,0-0.24a3.25,3.25,0,0,1-.41,1.09c0.3,0.08.55-.69,0.76-1a0.77,0.77,0,0,1,.12.69,3.58,3.58,0,0,1-.33,1c-0.25.62-.35,0.12-0.36,0.25a1.31,1.31,0,0,0-.26,1.12,0.73,0.73,0,0,1-.11.68,1,1,0,0,1-.72.16,2.51,2.51,0,0,1,.51-1.1l-0.28.39a1.31,1.31,0,0,1,.22-0.73,1.36,1.36,0,0,0-.29.44,3,3,0,0,0-.29.84,5.53,5.53,0,0,0-.2,1L14,49.63a1.66,1.66,0,0,0,0,.24h0.18a0.79,0.79,0,0,0,.59-0.25H14.43c0-.19.79-0.27,0.53-0.36A2.3,2.3,0,0,1,16.14,49a1.57,1.57,0,0,0,.08.27,0.38,0.38,0,0,0-.43-0.08,0.72,0.72,0,0,1,.46.1,0.56,0.56,0,0,0,.62-0.08L16.44,49A3.38,3.38,0,0,1,18,48.7a4,4,0,0,0-.51-0.29c0.33,0.39-1.39,0-.85.4-0.52-.3-0.6-0.09-0.6-0.4,0,0.09,0,.17-0.14.13l-0.08.08h0a0.27,0.27,0,0,1,0,.14,0.87,0.87,0,0,1-.42.19l-0.3,0a0.24,0.24,0,0,1-.18,0,0.61,0.61,0,0,1,.24-0.21l-0.12,0c0.24-.2.41-0.51,0.53-0.35a1.6,1.6,0,0,1,0-.19c0.16-.15.21-0.22,0.16-0.32a0.12,0.12,0,0,0,0-.09,1.07,1.07,0,0,0,0-.17h0l0.09-.38a3.22,3.22,0,0,1,.13-0.37h0a3.59,3.59,0,0,0,.26-0.53c0.09-.18.2-0.36,0.31-0.54a2.12,2.12,0,0,1,1-.9,2.18,2.18,0,0,1,.72-0.72l0.18,0.08a5.49,5.49,0,0,0,1-.73c0.56,0.16,1.5-.82,2.13-1l-0.08-.21c0.39-.2.75-0.42,1.22-0.71l-0.11-.17a7.19,7.19,0,0,1,1.9-.58,0.4,0.4,0,0,1-.35.13,2.33,2.33,0,0,0,1.35-.36,2,2,0,0,1,1.28-.37,0.68,0.68,0,0,1,.49-0.11h0.38a1,1,0,0,0-.25,0,2.66,2.66,0,0,0,.61-0.2L28,40.13h0.1c0.24,0,.17-0.13,0-0.27a1.35,1.35,0,0,0,.29-0.18c0.24,0.31.6-.22,0.9,0.11,0.16-.21,1.73-0.33,1.58-0.69,0,0,.16.06,0,0.08,0.34,0,.91.12,0.65-0.42h0.27l-0.37-1c0.17-.42.26-0.73,0.47-0.1l-0.1-.46a1.19,1.19,0,0,1,0-.2l-0.06-.44a3,3,0,0,0-.06-0.33L31.56,36a1.31,1.31,0,0,0-.34-0.12l0.2-.08a2.41,2.41,0,0,1-1-.52A8.85,8.85,0,0,0,29.3,34,6,6,0,0,1,28,32c-0.31.5-.13-0.68-0.5-0.54,0.07-.13,0-0.34.24-0.18-0.44-.58-0.28-1-0.76-1.37a1,1,0,0,1,.27,0,0.31,0.31,0,0,1-.14-0.27c0-.09.13,0.06,0.22,0.15a0.77,0.77,0,0,0-.91-0.61l-0.09,0a0.7,0.7,0,0,0-.3-0.8c0.08-.16.15-0.39,0.3,0-0.08-.26-0.1-1.57-0.37-1.57a0.7,0.7,0,0,0,0-.43V25.34c-0.34-.24-0.08-0.5-0.12-1h0A15.71,15.71,0,0,1,26,22.77l-0.22,0c-0.46-.12.3-1,0.17-1.59l-0.14.22c-0.14-.36.7-0.9,0.8-1.21a0.4,0.4,0,0,1,.07.22c0.37-.82-0.28-0.15-0.24-0.8,0.17-.09.35,0.21,0.46-0.2,0.14-.17-0.24-1.32.26-1.75-0.15.07-.31,0.15-0.29-0.15a1.69,1.69,0,0,1,.47-0.66,0.94,0.94,0,0,0,.32-0.68,0.13,0.13,0,0,1,.12,0c0.08-.34.58-0.85,0.61-1.15,0.37,0.22.68-.16,1.08-0.44A3.46,3.46,0,0,1,30,14.28a0.23,0.23,0,0,1,.35.14,8.68,8.68,0,0,1,1-.29V14.2a1.7,1.7,0,0,0,1.12-.44c0.17,0,0,.11,0,0.14a3.38,3.38,0,0,0,2-.26l0.08,0.23c0.25-.13,1.43.42,2.37,0.45a0.17,0.17,0,0,1-.13.07,2.54,2.54,0,0,1,1.49.71,2.14,2.14,0,0,0,.54.4,0.56,0.56,0,0,0,.54,0l0.32,0.16L40,15.93c-0.51-.78.35-0.11,0.22-0.51,0.28,0.29.41,0.93,0.09,0.59V15.93c-0.23.07,0,.29,0.06,0.58a0.85,0.85,0,0,1,.14.61,13.91,13.91,0,0,1,.73,5.38l0.32-.22v0.64c-0.07.17-.25,0.23-0.25-0.22a0.77,0.77,0,0,0,.25.77c-0.12.9-.39-0.34-0.39-0.07v0.29a1.31,1.31,0,0,1,.27.88,0.57,0.57,0,0,1-.21.32v1l0.26-.32c0.13,0.36,0,.73.28,0.38a4.6,4.6,0,0,0-.42,1.65A5.2,5.2,0,0,1,41,29.08a2.59,2.59,0,0,1-.31,1.35,0.16,0.16,0,0,1,.19,0,0.2,0.2,0,0,1,0,.14,0.16,0.16,0,0,1-.12.19h0a0.45,0.45,0,0,0-.55-0.21,2.34,2.34,0,0,1-1,.13c0.48,0.06-1.39.8-.63,0.86-0.42.2-.13-0.18-0.51-0.12-0.84.75-2.14,1.25-3.1,2.29,0,0.07.29,0,.16,0.29l-0.4.11-0.39.13c-0.16.23,0.17,0.49-.37,0.68,0.1,0,.24,0,0.14.13a10,10,0,0,0-2.29,3.37c-0.58,1.26-1,2.55-1.63,3.84,0.22-.34.19-0.09,0.14,0.19,0.07-.17.19,0,0.3,0a1.13,1.13,0,0,1-.25.53l-0.22.55c0.25,0.24-.09,1.23.2,1.36V44.53c0.31,0.48.77-.61,1.21-0.49a1,1,0,0,1,.18-0.93A1.27,1.27,0,0,0,32,42c0.13-.15.1,0.18,0.22,0.11a0.93,0.93,0,0,1,.11-0.91v0.06a8.63,8.63,0,0,1,1.5-2.88H33.61A1.31,1.31,0,0,1,34,38c-0.1-.47-0.43.75-0.59,0.29,0.52-.17,1.19-1.86,1.77-1.77,0.29-.37-0.28,0,0-0.42h0.19l0-.2a0.47,0.47,0,0,1,.55-0.15,1.31,1.31,0,0,0-.16.24,8.33,8.33,0,0,0,.86-0.9l-0.38.25a23.37,23.37,0,0,1,3.11-2.66H39.17a1.74,1.74,0,0,1,.77-0.43,4.73,4.73,0,0,0,.92-0.36h0a3,3,0,0,1,.43-0.3,0.65,0.65,0,0,0,.43-0.36c-0.07.46,0.48-.56,0.38,0a2,2,0,0,0,.2-1,2.74,2.74,0,0,1-.15-0.59l0.21-.12a1.45,1.45,0,0,1,0-.89c0,0.49.33-.3,0.39,0.26,0.64-1.14,0-1.84.53-2.35-0.41-.59-0.34,1-0.42.72-0.18.24-.28-0.49-0.22-0.86a3.5,3.5,0,0,0,.59-1.58V25a6.46,6.46,0,0,1,0-1.12c-0.28-.24,0-0.56-0.35-0.62L43,24.13a3.27,3.27,0,0,1-.34-1.74,1.44,1.44,0,0,1,.23.46c0.1-.24-0.08-0.45,0-0.7,0.35,0,.12,1,0.39,1.57,0.15-.25-0.28-1,0.11-0.73-0.5-.37,0-0.94-0.38-1.57h0.21a1.54,1.54,0,0,1-.16-0.5l0.3,0.32c-0.26-.51.11-1-0.07-1.55,0.13,1.08-.23.27-0.33,0.74-0.44-1.27.49-.82,0.07-2.34,0.1,0.2,0,.8-0.11.5a3.68,3.68,0,0,1,0-.9c-0.32-1-.16.22-0.41-0.17,0.14-.42-0.28-0.45-0.51-0.83l0.2-.09c-0.42-1.15-.52-0.09-0.91-1.09l0.49,0.23a3.25,3.25,0,0,0-.38-0.44h0.28a5.86,5.86,0,0,1-1-1.09c0,0.21-.32.22-0.73-0.11-0.23-.3.3-0.05-0.36-0.45a0.53,0.53,0,0,1,.64.31h0.29a2.77,2.77,0,0,0-1.08-.8,1.14,1.14,0,0,1,.24.21l-0.18-.06a2,2,0,0,0-.39-0.1l-0.57-.09c-0.13-.14,0-0.15.18-0.15-0.22-.06-0.4-0.05-0.71-0.14a0.49,0.49,0,0,1,.66-0.21,4.14,4.14,0,0,0-.54-0.11l-0.54-.05a1.13,1.13,0,0,1-.32-0.37,2.06,2.06,0,0,0-1-.08,4.48,4.48,0,0,1-1.14,0,0.56,0.56,0,0,1-.28.08c-0.34,0-.66-0.12-1-0.15a2.87,2.87,0,0,0-1.1.15l-0.49-.29c-0.64.16,0.67,0.3-.39,0.58-0.73.21-.32-0.22-0.6-0.27a3.09,3.09,0,0,1-1.69.66A2.87,2.87,0,0,1,30.08,12.47Zm-5.24,6a0.69,0.69,0,0,1,.09-0.57c0.2,0.27.07,0.37-.09,0.61v0Zm0.75,11.41a0.53,0.53,0,0,1-.09-0.46,1.08,1.08,0,0,1,.09.5v0ZM15.41,48.08h0C15.51,48,15.47,48,15.41,48.08Zm-0.16.3a0.1,0.1,0,0,0,.1,0c-0.06,0-.06-0.06,0-0.13S15.19,48.31,15.25,48.38ZM41.4,24.94l0.06-.13C41.51,25.1,41.46,25,41.4,24.94Z" style="fill:#fff"/><path d="M25,28.73a0.2,0.2,0,0,1,.1-0.09S25,28.6,25,28.73Z" style="fill:#fff"/><path d="M20.17,40.62a0.65,0.65,0,0,1,.29,0C20.45,40.54,20.37,40.53,20.17,40.62Z" style="fill:#fff"/><path d="M16.66,48.43l-0.42.06a0.78,0.78,0,0,1,.38.07C16.61,48.5,16.53,48.43,16.66,48.43Z" style="fill:#fff"/><path d="M20.32,49.76h0.19v-0.1C20.23,49.64,20,49.72,20.32,49.76Z" style="fill:#fff"/><path d="M17,49.14c0,0.18.3,0.12,0.59,0.09h0C17.68,49,17.36,49.06,17,49.14Z" style="fill:#fff"/><path d="M17.71,49.22H18C18,49.12,17.87,49.2,17.71,49.22Z" style="fill:#fff"/><path d="M15.36,48.64a0.92,0.92,0,0,0,.21-0.13c0.14-.11,0,0-0.06,0S15.3,48.54,15.36,48.64Z" style="fill:#fff"/><polygon points="17.29 49.74 17.18 49.52 17.02 49.7 17.29 49.74" style="fill:#fff"/><path d="M15.07,49.58l0.4,0.06a0.19,0.19,0,0,1,.14-0.08A1.15,1.15,0,0,0,15.07,49.58Z" style="fill:#fff"/><path d="M15.62,49.56a0.85,0.85,0,0,0,.34,0H15.62Z" style="fill:#fff"/><polygon points="16.64 49.81 16.5 49.76 16.17 49.74 16.64 49.81" style="fill:#fff"/><path d="M15.51,45.9a4.36,4.36,0,0,1,.24-0.44c0-.09-0.15,0-0.24.17S15.41,45.93,15.51,45.9Z" style="fill:#fff"/><path d="M14.25,47a0.46,0.46,0,0,1,.25-0.15l-0.25-.13V47Z" style="fill:#fff"/><path d="M14.92,45.58c-0.06-.1.28-0.77-0.12-0.2C14.83,45.48,14.61,46,14.92,45.58Z" style="fill:#fff"/><polygon points="21.24 40.93 21.12 40.99 21.33 41.4 21.24 40.93" style="fill:#fff"/><path d="M27.58,37.82c-0.65,0-.1.3-0.68,0.28-0.12.14,0.48,0,.35,0.13C27.6,38,27.81,38.09,27.58,37.82Z" style="fill:#fff"/><path d="M27.25,38.24l-0.18.11A0.77,0.77,0,0,0,27.25,38.24Z" style="fill:#fff"/><polygon points="29.94 44.36 29.83 44.77 29.99 44.51 29.94 44.36" style="fill:#fff"/><path d="M30.25,45.17L30,45.26l0.25,0.25A0.52,0.52,0,0,1,30.25,45.17Z" style="fill:#fff"/><path d="M24.06,19.58h0.07a0.54,0.54,0,0,0,.15-0.35Z" style="fill:#fff"/><polygon points="26.77 14.04 26.68 14.12 27.02 14.16 26.77 14.04" style="fill:#fff"/><path d="M31.48,11.6c-0.21,0-.44.11-0.65,0.13C31.28,11.62,31.59,11.92,31.48,11.6Z" style="fill:#fff"/><path d="M53.11,36.4c-2.53,0-4.7,2.06-5.71,4.2-1-2.15-3.18-4.2-5.71-4.2a6.31,6.31,0,0,0-6.31,6.31h0c0,7.09,7.15,9,12,16,4.61-7,12-9.09,12-16a6.31,6.31,0,0,0-6.31-6.31h0Z" style="fill:#fff"/><path d="M53.18,37.5c-0.09,0-.06.17-0.07,0.2a0.14,0.14,0,0,0,.08-0.18v0Z" style="fill:#fff"/><polygon points="54.81 37.33 54.76 37.4 55.05 37.3 54.81 37.33" style="fill:#fff"/><path d="M56.2,38c0-.35-0.51-0.25-0.7-0.46V37.45l-0.21.18A2,2,0,0,1,56.2,38Z" style="fill:#fff"/><path d="M56.39,39c0-.12.19,0-0.1-0.14h0Z" style="fill:#fff"/><path d="M56.29,38.92c-0.11-.09,0,0.14,0,0h0Z" style="fill:#fff"/><path d="M56.82,39.33l-0.21-.06c0,0.08.07,0.21,0,.2C56.77,39.57,56.81,39.49,56.82,39.33Z" style="fill:#fff"/><path d="M57.12,39.31H57S57,39.33,57.12,39.31Z" style="fill:#fff"/><path d="M56.8,39.18L57,39.27s0.09-.13-0.09,0C57,39.17,56.91,39.2,56.8,39.18Z" style="fill:#fff"/><path d="M56.75,39c0-.12-0.11-0.25.11-0.2C56.54,38.62,56.44,38.84,56.75,39Z" style="fill:#fff"/><path d="M56.45,37.77l-0.09-.17H56.17A0.66,0.66,0,0,0,56.45,37.77Z" style="fill:#fff"/><path d="M57.37,40.37a1.14,1.14,0,0,0,.19-0.2l-0.14-.08A0.33,0.33,0,0,1,57.37,40.37Z" style="fill:#fff"/><path d="M57.56,40.17l0.21,0.13C57.7,40.12,57.62,40.13,57.56,40.17Z" style="fill:#fff"/><path d="M57.42,39.11L57,39l0.24,0.08,0.25,0.09Z" style="fill:#fff"/><polygon points="57.68 41.09 57.49 41.03 57.78 41.14 57.68 41.09" style="fill:#fff"/><path d="M57.85,41.57a0.58,0.58,0,0,1-.29.09,1,1,0,0,0,.3.3A0.42,0.42,0,0,1,57.85,41.57Z" style="fill:#fff"/><path d="M58,42.13L57.86,42A0.59,0.59,0,0,0,58,42.13Z" style="fill:#fff"/><path d="M57.9,40.66a0.33,0.33,0,0,0-.12.23l0.15-.15Z" style="fill:#fff"/><path d="M57.94,40.74h0L58,40.92Z" style="fill:#fff"/><path d="M57.64,39.7c0.16,0,.41.25,0.4-0.08A0.66,0.66,0,0,1,57.64,39.7Z" style="fill:#fff"/><path d="M58.06,40.44L58,40.21a0.16,0.16,0,0,1-.16.07Z" style="fill:#fff"/><polygon points="58.17 40.53 58.06 40.44 58.09 40.53 58.17 40.53" style="fill:#fff"/><path d="M58.16,41.72a0.56,0.56,0,0,1,.15.31,1.41,1.41,0,0,0,0-.41C58.24,41.62,58.12,41.58,58.16,41.72Z" style="fill:#fff"/><path d="M58.09,41.23h0Z" style="fill:#fff"/><polygon points="58.31 43.29 58.35 43.27 58.32 43.27 58.31 43.29" style="fill:#fff"/><path d="M58.33,41.59a0.19,0.19,0,0,0-.12-0.2,1.1,1.1,0,0,1,.09.23S58.35,41.62,58.33,41.59Z" style="fill:#fff"/><path d="M58.15,42.45a1,1,0,0,0,.1-0.18C58.19,42.33,58.1,42.43,58.15,42.45Z" style="fill:#fff"/><path d="M58.06,41.3h0Z" style="fill:#fff"/><path d="M58.06,41.3a0.6,0.6,0,0,0,.15.1,0.63,0.63,0,0,0-.1-0.14Z" style="fill:#fff"/><path d="M59.51,43.84a0.4,0.4,0,0,1-.17-0.54l0.06-.09c-0.11-.28-0.71-0.11-1,0.07,0.08,0,.15,0,0.24.28,0.1-.07.26-0.55,0.41-0.32s-0.08.28-.19,0.44c0.24-.12.28,0.49,0.59,0.46a1.88,1.88,0,0,0-.07-0.34S59.46,43.92,59.51,43.84Z" style="fill:#fff"/><path d="M58.4,42.81v-0.1a0.86,0.86,0,0,1-.26.34,0.32,0.32,0,0,0,.2.22l0.06-.49v0Z" style="fill:#fff"/><path d="M58.36,42.28c0.2,0.06.29,0.3,0.49,0.14,0-.3-0.16-0.2-0.27-0.37,0.09,0.46-.11-0.12-0.2.22A1,1,0,0,0,58.3,42a0.76,0.76,0,0,1-.06.24h0.08c0,0.13,0,0-.07,0h0l0.13,0.44A1.28,1.28,0,0,0,58.36,42.28Z" style="fill:#fff"/><path d="M58.54,39.64h0Z" style="fill:#fff"/><path d="M58.54,39.89a0.22,0.22,0,0,1-.17-0.13c0-.12.08,0,0.13-0.08s-0.25-.15-0.22.09h0a0.72,0.72,0,0,1-.1.53A1.18,1.18,0,0,0,58.54,39.89Z" style="fill:#fff"/><path d="M58.63,41.13l0.2,0.38,0.11-.25H58.85C58.82,41.06,58.72,41.14,58.63,41.13Z" style="fill:#fff"/><polygon points="58.22 43.33 58.02 43.26 58.29 43.51 58.22 43.33" style="fill:#fff"/><polygon points="58.2 43.84 58.03 43.8 58.11 43.94 58.2 43.84" style="fill:#fff"/><path d="M36.85,49.43l-0.13-.08Z" style="fill:#fff"/><path d="M37.52,50.2H37.6C37.53,50.16,37.49,50.17,37.52,50.2Z" style="fill:#fff"/><path d="M49.64,54.2c-0.26,0-.6,0-0.44.13l0.18,0.09A0.48,0.48,0,0,1,49.64,54.2Z" style="fill:#fff"/><path d="M44,54.85v0.08h0.22Z" style="fill:#fff"/><path d="M43.39,55.33l-0.09-.26A0.89,0.89,0,0,0,43.39,55.33Z" style="fill:#fff"/><path d="M34.22,44.25L34,44.1C34,44.37,34.12,44.24,34.22,44.25Z" style="fill:#fff"/><path d="M55.77,48.51a1.12,1.12,0,0,0-.35.21C55.63,48.66,55.86,48.66,55.77,48.51Z" style="fill:#fff"/><path d="M38.66,48.39a0.14,0.14,0,0,0-.16,0C38.58,48.43,38.63,48.43,38.66,48.39Z" style="fill:#fff"/><path d="M55.1,49h0.09a1,1,0,0,1,.22-0.3A0.37,0.37,0,0,0,55.1,49Z" style="fill:#fff"/><path d="M51.8,37.48l-0.18.08A0.33,0.33,0,0,0,51.8,37.48Z" style="fill:#fff"/><path d="M58.44,45.54a0.13,0.13,0,0,0,.07.08A0.17,0.17,0,0,1,58.44,45.54Z" style="fill:#fff"/><path d="M55.06,50.76h0Z" style="fill:#fff"/><path d="M57.69,45.64l-0.11.1A0.38,0.38,0,0,0,57.69,45.64Z" style="fill:#fff"/><path d="M57.48,45.88a0.59,0.59,0,0,1,.1-0.15h0Z" style="fill:#fff"/><path d="M39.09,36.33h0C39.23,36.21,39.17,36.24,39.09,36.33Z" style="fill:#fff"/><polygon points="48.79 58.27 48.8 58.24 48.78 58.26 48.79 58.27" style="fill:#fff"/><path d="M48.45,59a0.9,0.9,0,0,1,.33-0.74,3.84,3.84,0,0,1-.41-0.39A9.24,9.24,0,0,1,48.45,59Z" style="fill:#fff"/><path d="M35.4,47.37v0.4c-0.45-.25-0.51-0.59-0.57-0.17,0.29-.12.44,0.21,0.65,0.48s0.41,0.56.67,0.41v0.26a0.88,0.88,0,0,1-.1-0.1c0,0.55.55,0,.82,0.49,0.08,0.18.1,0.34,0,.28l0.39,0.24c0.07,0.1,0,.15-0.1,0l0.48,0.44h0a2.84,2.84,0,0,1,.49.08c0,0.18-.1,0-0.13.07l0.35,0.15c0,0.21-.33.12-0.48-0.08-0.2.67,0.31,0.1,0.57,0.85L38.15,51a1.63,1.63,0,0,0,.32.91c0-.15-0.18-0.92.2-0.76a0.45,0.45,0,0,0,.37.27c-0.15.16,0,.25,0.23,0.41l-0.21.2a0.91,0.91,0,0,0,.54,0,0.51,0.51,0,0,1,0,.61c0.32,0.35,0-.48.45-0.15a1.7,1.7,0,0,0,1,.62c0.14,0.25-.15.1-0.13,0.23h0.33a0.12,0.12,0,0,1,0,.1,0.89,0.89,0,0,1,.49,0c0.28-.18.18,0.78,0.71,0.78a0.43,0.43,0,0,1-.21.2,3.19,3.19,0,0,0,1,.25L43.33,55c0-.35.38-0.29,0.75-0.22a2.67,2.67,0,0,0,0-.34l0.47,0.24c0,0.08-.1.11-0.24,0.14h0.11c0,0.2-.13.25-0.33,0.28V54.93a0.83,0.83,0,0,0-.52.23,0.35,0.35,0,0,1,.17.06,0.14,0.14,0,0,0-.11.06h0.18l-0.14.3,0.11-.07,0.16,0.29L44,56.14a3.29,3.29,0,0,1,1.76.55,0.86,0.86,0,0,0-.53.39c0.09-.35-0.45-0.35-0.67-0.65,0.11,0.16,0,.22-0.08.22l0.33,0.15L45.15,57c-0.18.14,0,.22,0,0.41,0.13-.2.26-0.15,0.41,0a5.7,5.7,0,0,0,.54.49c-0.1.1-.21,0.1-0.52-0.28A0.44,0.44,0,0,0,46,58a0.34,0.34,0,0,1,.42.33c-0.07-.09-0.09-0.16-0.15-0.11a0.9,0.9,0,0,1,.43.75l-0.07-.09c0.11,0.18.26,0.39,0.42,0.6s0.33,0.61.48,0.16A2.54,2.54,0,0,0,48,58.39a5,5,0,0,1,.08.81,10,10,0,0,0,.14-1.3,5,5,0,0,0-.06-1,2.92,2.92,0,0,0,.46.55,0.65,0.65,0,0,1,.15.78,1.8,1.8,0,0,0,.53-0.7c-0.13.09-.53-0.09-0.46-0.24a5,5,0,0,0,.81-0.2,0.42,0.42,0,0,1-.3-0.51v0a2.39,2.39,0,0,1,.39.41v-0.7a0.52,0.52,0,0,0,.49.31,1.73,1.73,0,0,1,.36-0.45l-0.23.08c0.45-.37-0.13-0.92.32-1.31,0,0.12.33,0.57,0.58,0.41a3.08,3.08,0,0,1-.19-1.82h0.18l0.18-.4a12.12,12.12,0,0,1,.08,2c0.24-.07.16,0.08,0.39-0.16,0.18,0,0,.28,0,0.35l0.3-.23,0.31-.23c-0.23-.2.22-0.62,0-0.78l-0.4.79a1,1,0,0,1,.21-1.29,1.1,1.1,0,0,1,.36.53A0.68,0.68,0,0,1,53,53.64l-0.07.27c0.3-.12.1-0.63,0.57-0.66,0.11-.07.54,0,0.44-0.11A2.78,2.78,0,0,1,52.76,52a4.11,4.11,0,0,1,.94-0.17c0.34,0.06.19,0.69,0.48,0.74a0.42,0.42,0,0,1,0-.28c0.15,0,.13.23,0.32,0C54.33,52,55,51.91,54.43,52a2.07,2.07,0,0,1,.51-0.39,0.87,0.87,0,0,1-.08-1,0.35,0.35,0,0,0,.21.11c0.44-.38.77-0.5,1.16-0.88,0.09,0,.33-0.12.35,0.06a0.55,0.55,0,0,1,.1-0.35c0.42-.06-0.23.31,0.17,0.34a1.26,1.26,0,0,1,.21-0.74c-0.26-.13-0.42.37-0.51,0.63a1.29,1.29,0,0,1,0-1.36c0.2-.4.31,0,0.31-0.08,0.59-.6-0.08-0.94.5-1.32a0.76,0.76,0,0,1,.59.3,2.1,2.1,0,0,1-.57.58l0.26-.18a0.51,0.51,0,0,1-.24.44c0.33,0,.88-1.13,1.32-1.65,0-.14,0-0.35-0.13-0.31l-0.07.2c-0.26.08-.06-0.45-0.26-0.27a1.43,1.43,0,0,1,.12-0.94h0.28a0.27,0.27,0,0,0-.2.3c-0.07-.18.57-0.42,0.25-0.69L58.46,45a1.56,1.56,0,0,1-.13-0.93L58,44.29c0.43-.09-0.19.74,0.28,0.56a3.41,3.41,0,0,0-.67.47c0.09,0,.19,0,0.07.19l0,0.08h0a0.31,0.31,0,0,1,.17-0.07,1.4,1.4,0,0,1,0,.75c-0.11.12-.06-0.11-0.19-0.07v0.27c-0.19-.08-0.48.2-0.42-0.18a3,3,0,0,1-.17.28,0.71,0.71,0,0,0-.41.47c-0.12.1,0,.46-0.09,0.25l-0.24.49h0A2.54,2.54,0,0,1,55.2,49a1.33,1.33,0,0,1-.45.51l-0.16-.08A2,2,0,0,0,54,50c-0.5-.17-0.93.71-1.31,0.93l0.14,0.18a3.31,3.31,0,0,0-.62.74L52.35,52a5.11,5.11,0,0,1-1.07.8,0.2,0.2,0,0,1,.18-0.18c-0.76.09-.72,1.11-1.34,1.27a0.33,0.33,0,0,1-.24.24h0l-0.21.06h0.19a1.75,1.75,0,0,0-.25.36l-0.2-.1h0c-0.17.06,0,.16,0.16,0.21a0.79,0.79,0,0,0,0,.25c-0.34-.14-0.2.39-0.59,0.27,0.06,0.2-.44.69-0.2,1,0,0-.09,0,0-0.08a0.61,0.61,0,0,0-.31.41l-0.26-.12a1.86,1.86,0,0,1,.11.45c-0.22,0-.28-0.08-0.33-0.35a1.22,1.22,0,0,1,0,.42,3.62,3.62,0,0,0-.09.49V57.16c0,0.08-.12.58-0.18,0.42s-0.11,0-.18-0.18a3.41,3.41,0,0,0-.46-0.4l-0.27-.4a1.23,1.23,0,0,1-.11-0.2A2.19,2.19,0,0,0,46.53,56c-0.27.49-.12-0.51-0.45-0.27,0.06-.13,0-0.27.2-0.23-0.44-.29-0.38-0.69-0.87-0.71a1.26,1.26,0,0,1,.22-0.13s-0.19,0-.17-0.13,0.13,0,.22,0a0.63,0.63,0,0,0-1,.1,0.35,0.35,0,0,0-.35-0.35l-0.12,0c0-.15,0-0.34.25-0.15-0.11-.14-0.67-0.88-0.88-0.68a0.29,0.29,0,0,0-.23-0.19,4.89,4.89,0,0,0-.6-0.57v0.11c-0.34.16-.29-0.16-0.55-0.33h0a9.88,9.88,0,0,1-.65-0.8l-0.11.19c-0.35.3-.29-0.62-0.71-0.75v0.19c-0.27,0,0-.88-0.17-1.07s0.1,0,.17,0c-0.24-.59-0.24.16-0.61-0.08,0-.16.34-0.22,0.14-0.43,0-.18-0.93-0.22-1-0.69,0,0.14,0,.29-0.25.21s-0.23-.89-0.68-0.84a0.13,0.13,0,0,1,0-.1,2.37,2.37,0,0,0-.82-0.45c0.22-.3,0-0.53-0.29-0.75s-0.5-.42-0.19-0.59L36.87,46h0.07a0.78,0.78,0,0,0-.52-0.58c0-.11.1-0.06,0.13-0.06A1.37,1.37,0,0,0,36,44.23l0.21-.09c-0.19-.12.25-0.94,0-1.52a0.15,0.15,0,0,1,.1.06,1,1,0,0,1,0-.52c0.06-.17.15-0.34,0.21-0.5a0.52,0.52,0,0,0,0-.74l-0.07-.05V40.38c-0.28.53-.3-0.22-0.51,0,0.06-.26.49-0.47,0.4-0.19H36.26c0.17,0.14.28,0,.38-0.18s0.23-.33.34-0.25a5.12,5.12,0,0,1,2.52-1.92l-0.25-.24a3.65,3.65,0,0,1,.35-0.14s0.21,0.19,0,.27c0.19,0.12.34-.29,0.33-0.37,0.52,0-.07.42,0.09,0.38l0.18-.09H40.14a0.53,0.53,0,0,1,.41-0.37c0.21,0,.14.18,0.22,0.18h0.56l-0.2-.24c0.19-.15.44,0,0.2-0.29a1.88,1.88,0,0,0,1,.29,1.76,1.76,0,0,1,.85.25,1.11,1.11,0,0,1,.9.24c0-.08,0-0.38.31-0.17-0.41.44,0.35,0.53,0.27,1,0-.38.69,0.52,0.71,0,0.16,0.22-.14.17-0.1,0.41a1.14,1.14,0,0,1,.41.34,4.13,4.13,0,0,1,.47.75c0.29,0.57.62,1.39,1,2,0-.14-0.06-0.55.08-0.54q0.11,0.62.27,1.34h0c0.14-.35.08-1.17,0.33-1a0.36,0.36,0,0,1,0-.37,15.64,15.64,0,0,0,1-1.5c0.17-.27.36-0.51,0.54-0.75a2.52,2.52,0,0,1,.38-0.43,2.49,2.49,0,0,1,2-.94c-0.23-.06-0.12-0.13,0-0.19a0.4,0.4,0,0,1-.13-0.27H52l0.33,0.06c0-.33.61-0.14,0.65-0.41l-0.32,0c0.24-.37-0.48-0.68-0.55-1.1a0.64,0.64,0,0,1-.69.11,0.67,0.67,0,0,0-.79.37c-0.16,0,0-.17-0.07-0.23a0.63,0.63,0,0,1-.53.45h0A21.26,21.26,0,0,0,48,38l0.21,0.08-0.12.09H48c0.07,0.17.12,0.12,0.18,0.06s0.22-.21.26,0a0.38,0.38,0,0,0-.2,0,0.19,0.19,0,0,0-.12,0,0.78,0.78,0,0,0-.2.2c-0.12.15-.23,0.3-0.3,0-0.07.11,0.08,0.3,0,.44V39c-0.06.07-.09-0.18-0.09-0.37a0.61,0.61,0,0,0,0-.14h0a0.09,0.09,0,0,1-.09-0.07v0.23a3.6,3.6,0,0,1-.43-0.4A1.18,1.18,0,0,0,46.8,38a2.75,2.75,0,0,0-.61-0.44v0.12c-0.64-.34-0.34-0.47-1-0.87h0a1.07,1.07,0,0,1-.56-0.2c0.24,0-.22-0.38.08-0.36a1.11,1.11,0,0,0-1,.08l0-.19a0.83,0.83,0,0,1-.63.09c0.35-.06-0.18-0.31.22-0.4-0.78-.58-1.29.15-1.65-0.37-0.37.45,0.72,0.26,0.51,0.37,0.16,0.17-.33.31-0.56,0.29a1.8,1.8,0,0,0-1.14-.46,0.14,0.14,0,0,0,.13,0,6.27,6.27,0,0,1-.8.15c-0.09.3-.39,0.11-0.32,0.46a4.63,4.63,0,0,1,.5-0.22,2,2,0,0,1-1,.69,0.74,0.74,0,0,1,.2-0.33,4.28,4.28,0,0,1-.46.17c-0.11-.36.64-0.38,0.91-0.74-0.23-.08-0.59.49-0.55,0.06-0.07.54-.66,0.21-0.89,0.77L38,36.39a0.89,0.89,0,0,1-.24.3l0.07-.36c-0.21.38-.73,0.25-1,0.58,0.62-.48.3,0.1,0.64,0a0.62,0.62,0,0,1-.68.34,0.76,0.76,0,0,0-.81.39c0.08-.13.46-0.32,0.38-0.08a1.64,1.64,0,0,1-.58.28c-0.4.6,0.23,0,.15,0.37-0.34,0-.13.33-0.22,0.62l-0.18-.12c-0.52.61,0.25,0.39-.2,0.92l-0.14-.4-0.09.37L35,39.45a1.51,1.51,0,0,1-.3.89c0.18,0,.33.17,0.26,0.5s-0.17-.18-0.26.3c-0.11-.13-0.24-0.3,0-0.46a0.8,0.8,0,0,1-.16-0.19,1.47,1.47,0,0,0-.23.82,0.38,0.38,0,0,1,.09-0.19l0.18,0.76a0.25,0.25,0,0,1-.2-0.09c0,0.15.09,0.26,0.1,0.47a0.45,0.45,0,0,1-.41-0.39,1.12,1.12,0,0,0,.07.36l0.08,0.36a0.91,0.91,0,0,1-.27.26c-0.08.39,0.38,0.9,0.31,1.39a0.33,0.33,0,0,1,.13.17,2,2,0,0,0,.32,1.39l-0.19.4c0.21,0.39.23-.53,0.58,0.1,0.26,0.43-.19.28-0.2,0.48a1.13,1.13,0,0,1,.72.93A1.63,1.63,0,0,1,35.4,47.37Zm3.24,3.82c-0.1,0-.33-0.06-0.29-0.2,0.25-.1.22,0,0.29,0.21h0Zm5.61,4.43a0.22,0.22,0,0,1-.17-0.24A0.38,0.38,0,0,1,44.25,55.62ZM57.1,46.87h0C56.93,47,57,47,57.1,46.87Zm0.29-.27a0.07,0.07,0,0,0-.07-0.06,0.17,0.17,0,0,1-.08.2,0.12,0.12,0,0,0,.15-0.13h0ZM40.74,37.36H40.66C40.81,37.23,40.77,37.29,40.74,37.36Z" style="fill:#fff"/><path d="M43.47,55.28a0.26,0.26,0,0,1,0-.11S43.45,55.2,43.47,55.28Z" style="fill:#fff"/><path d="M54.38,52.52a0.35,0.35,0,0,1-.2,0A0.16,0.16,0,0,0,54.38,52.52Z" style="fill:#fff"/><path d="M57.83,44.69a2,2,0,0,1,0,.23A0.29,0.29,0,0,1,58,44.75C57.9,44.74,57.82,44.76,57.83,44.69Z" style="fill:#fff"/><path d="M59.44,42.74a1.07,1.07,0,0,0,0-.12H59.3C59.32,42.8,59.38,42.91,59.44,42.74Z" style="fill:#fff"/><path d="M58.57,44.66c0.18,0,.15-0.15.16-0.33h0C58.48,44.27,58.53,44.46,58.57,44.66Z" style="fill:#fff"/><path d="M58.73,44.3a0.52,0.52,0,0,1,0-.16C58.66,44.1,58.73,44.2,58.73,44.3Z" style="fill:#fff"/><path d="M57.5,46.13A0.66,0.66,0,0,0,57.4,46C57.24,45.79,57.41,46.56,57.5,46.13Z" style="fill:#fff"/><polygon points="59.18 44.66 58.95 44.67 59.1 44.82 59.18 44.66" style="fill:#fff"/><path d="M58.58,46l0.16-.26a0.09,0.09,0,0,1,0-.1A0.52,0.52,0,0,0,58.58,46Z" style="fill:#fff"/><path d="M58.69,45.65a0.41,0.41,0,0,0,0-.24A0.92,0.92,0,0,0,58.69,45.65Z" style="fill:#fff"/><polygon points="59.16 45.08 59.09 45.16 59 45.35 59.16 45.08" style="fill:#fff"/><path d="M56.8,48.65l-0.16.29c0,0.07.13,0,.19-0.07S56.89,48.66,56.8,48.65Z" style="fill:#fff"/><path d="M57.91,48.25a0.33,0.33,0,0,1-.23,0l0.21,0.18V48.25h0Z" style="fill:#fff"/><path d="M57.34,49.06c0,0.08-.15.53,0.11,0.18C57.42,49.17,57.59,48.86,57.34,49.06Z" style="fill:#fff"/><polygon points="53.49 52.29 53.55 52.23 53.24 51.9 53.49 52.29" style="fill:#fff"/><path d="M51.09,56c0.35-.19-0.14-0.26.2-0.41a1.31,1.31,0,0,0-.28,0C50.93,55.86,50.8,55.9,51.09,56Z" style="fill:#fff"/><path d="M51,55.62a0.81,0.81,0,0,0,0-.13A0.36,0.36,0,0,0,51,55.62Z" style="fill:#fff"/><path d="M52.58,37.55l0.2,0.07-0.14-.14Z" style="fill:#fff"/><path d="M52.93,37.17L53,37.46l0.12-.27A0.15,0.15,0,0,1,52.93,37.17Z" style="fill:#fff"/><path d="M38.77,52.12h0.06a0.22,0.22,0,0,0-.1-0.22Z" style="fill:#fff"/><polygon points="36.41 49.34 36.45 49.39 36.58 49.14 36.41 49.34" style="fill:#fff"/><path d="M34.45,46.69a2.53,2.53,0,0,0,.21.39C34.48,46.84,34.75,46.53,34.45,46.69Z" style="fill:#fff"/></svg>