<svg id="Layer_1" data-name="Layer 1" xmlns="http://www.w3.org/2000/svg" viewBox="0 0 74 66.28"><title>icon-plus</title><path d="M29.24,26.47a7.3,7.3,0,0,0,.52-1.65L33,24l-0.27-3-3.31-.24a7.52,7.52,0,0,0-.81-1.53l1.68-2.86L28,14.45l-2.51,2.16a7.31,7.31,0,0,0-1.65-.52l-0.84-3.21-3,.27-0.25,3.31a7.52,7.52,0,0,0-1.53.81L15.33,15.6l-1.91,2.3,2.16,2.51a7.3,7.3,0,0,0-.52,1.65l-3.21.84,0.27,3,3.31,0.25a7.52,7.52,0,0,0,.81,1.53l-1.68,2.86,2.3,1.91,2.51-2.16a7.31,7.31,0,0,0,1.65.52L21.87,34l3-.27,0.25-3.31a7.52,7.52,0,0,0,1.53-.81l2.86,1.68L31.4,29l-2.16-2.51h0Zm-3.85-3.3a3,3,0,1,1-3.25-2.71A3,3,0,0,1,25.39,23.17Zm32.8,15.95C58.1,38.75,58,38.39,57.87,38l2.52-2L59,33.41l-3.05,1c-0.23-.3-0.47-0.6-0.71-0.88l1.57-2.78-2.3-1.91-2.45,2.05c-0.32-.2-0.66-0.38-1-0.54l0.39-3.17-2.85-.89-1.48,2.83C46.74,29,46.37,29,46,29l-0.85-3.08-3,.27-0.28,3.19c-0.37.09-.73,0.2-1.09,0.32l-2-2.52-2.65,1.39,1,3.05c-0.3.23-.6,0.47-0.88,0.71l-2.78-1.57L31.55,33l2.05,2.45c-0.2.32-.38,0.66-0.54,1l-3.17-.39L29,38.92l2.83,1.48c-0.06.37-.1,0.75-0.12,1.13l-3.08.85,0.27,3,3.19,0.28c0.09,0.37.2,0.73,0.32,1.09l-2.52,2,1.39,2.65,3.05-1c0.23,0.3.47,0.6,0.71,0.88l-1.57,2.78L35.76,56l2.45-2.05c0.32,0.2.66,0.38,1,.54l-0.39,3.17,2.85,0.89,1.48-2.83c0.37,0.06.75,0.1,1.13,0.12l0.85,3.08,3-.27,0.28-3.19c0.37-.09.73-0.2,1.09-0.32l2,2.52,2.65-1.39-1-3.05c0.3-.23.6-0.47,0.88-0.71l2.78,1.57,1.91-2.3L56.67,49.3c0.2-.32.38-0.66,0.54-1l3.17,0.39,0.89-2.85-2.83-1.48c0.06-.37.1-0.75,0.12-1.13l3.08-.85-0.27-3Zm-6.58,2.67a6.5,6.5,0,1,1-7.06-5.88A6.5,6.5,0,0,1,51.62,41.79Z" style="fill:#fff;stroke:#fff;stroke-miterlimit:10"/></svg>