<svg xmlns="http://www.w3.org/2000/svg" xmlns:xlink="http://www.w3.org/1999/xlink" viewBox="0 0 24 24">
  <defs>
    <path id="a" d="M18.8495 3.29325l-7.071 7.071-7.071-7.071c-.391-.391-1.023-.391-1.415 0-.39.39-.39 1.023 0 1.414l7.072 7.071-7.07 7.07c-.392.392-.392 1.024 0 1.414.194.196.451.294.706.294.256 0 .512-.098.708-.294l7.07-7.069 7.071 7.069c.196.196.451.294.708.294.255 0 .511-.098.706-.294.392-.39.392-1.022 0-1.414l-7.071-7.07 7.071-7.071c.391-.391.391-1.024 0-1.414-.195-.196-.45-.293-.706-.293-.256 0-.512.097-.708.293z"/>
  </defs>
  <use fill="#000" fill-rule="evenodd" xlink:href="#a"/>
</svg>
