<?xml version="1.0" encoding="utf-8"?>
<!-- Generator: Adobe Illustrator 21.0.0, SVG Export Plug-In . SVG Version: 6.00 Build 0)  -->
<svg version="1.1" id="Layer_1" xmlns="http://www.w3.org/2000/svg" xmlns:xlink="http://www.w3.org/1999/xlink" x="0px" y="0px"
	 viewBox="0 0 1190.6 53.9" style="enable-background:new 0 0 1190.6 53.9;" xml:space="preserve">
<style type="text/css">
	.st0{stroke:#000000;stroke-width:0.6;stroke-miterlimit:10;}
	.st1{fill:none;stroke:#FFFFFF;stroke-width:0.6;stroke-miterlimit:10;}
	.st2{fill:#FFFFFF;stroke:#231F20;stroke-width:0.6;stroke-miterlimit:10;}
	.st3{fill:#FFFFFF;stroke:#000000;stroke-width:0.5778;stroke-miterlimit:10;}
	.st4{fill:#FFFFFF;}
	.st5{font-family:'UniversNextforHSBCW02-Lt';}
	.st6{font-size:14.1618px;}
	.st7{fill:#009900;}
	.st8{fill:#99CC00;}
	.st9{fill:#FFFF00;}
</style>
<g>
	<polygon class="st0" points="15.4,9.1 11.2,13.1 11.2,20.9 7.6,40 23.4,40 19.6,20.9 19.6,13.1 	"/>
	<line id="_Line_" class="st1" x1="10.7" y1="20.9" x2="19.9" y2="20.9"/>
	<line class="st1" x1="20" y1="13.1" x2="10.7" y2="13"/>
	<line class="st1" x1="15.4" y1="24.1" x2="15.4" y2="35"/>
	<polyline class="st2" points="26.3,20.7 21.6,17.2 21.6,17.2 26.4,13.7 	"/>
	<path class="st3" d="M19.9,20.2c-2.3,0-4.2-1.4-4.2-3.2s1.9-3.2,4.2-3.2"/>
</g>
<text transform="matrix(1 0 0 1 34 20.5856)" class="st4 st5 st6">decommissioning</text>
<text transform="matrix(1 0 0 1 34 20.5856)" class="st4 st5 st6">decommissioning</text>
<text transform="matrix(1 0 0 1 34 37.5856)" class="st4 st5 st6">workshop</text>
<text transform="matrix(1 0 0 1 34 37.5856)" class="st4 st5 st6">workshop</text>
<g id="Layer_1_1_">
	<path class="st7" d="M1183.3,28.6c-1.5-1.6-3.2-3-4.9-4.1c1.7-1.1,3.4-2.5,4.9-4.1c-2-1-4-1.7-6-2.2c1.2-1.6,2.3-3.5,3.2-5.5
		c-2.2-0.3-4.3-0.2-6.4,0c0.6-2,1-4.1,1.1-6.3c-2.1,0.5-4.2,1.2-6,2.2c-0.1-2.1-0.5-4.2-1.1-6.3c-1.8,1.2-3.5,2.6-4.9,4.1
		c-0.8-1.9-1.9-3.8-3.2-5.5c-1.3,1.8-2.4,3.6-3.2,5.6c-1.4-1.5-3.1-2.9-4.9-4.1l0,0c-0.6,2.1-1,4.2-1.1,6.3c-1.8-1-3.8-1.7-6-2.2
		c0.1,2.2,0.5,4.3,1.1,6.3c-2.1-0.3-4.2-0.3-6.4,0c0.9,2,1.9,3.9,3.2,5.5c-2,0.5-4,1.2-6,2.2c1.5,1.6,3.2,3,4.9,4.1
		c-1.7,1.1-3.4,2.5-4.9,4.1c2,1,4,1.7,6,2.2c-1.2,1.6-2.3,3.5-3.2,5.5c2.2,0.3,4.3,0.2,6.4,0c-0.6,2-1,4.1-1.1,6.3
		c2.1-0.5,4.2-1.2,6-2.2c0.1,2.1,0.5,4.2,1.1,6.3c1.8-1.2,3.5-2.6,4.9-4.1c0.8,1.9,1.9,3.8,3.2,5.6c1.3-1.8,2.4-3.6,3.2-5.6
		c1.4,1.5,3.1,2.9,4.9,4.1c0.6-2.1,1-4.2,1.1-6.3c1.8,1,3.9,1.7,6,2.2c-0.1-2.2-0.5-4.3-1.1-6.3c2,0.3,4.2,0.3,6.4,0
		c-0.9-2-1.9-3.9-3.2-5.5C1179.3,30.4,1181.4,29.6,1183.3,28.6z"/>
	<path class="st8" d="M1177.3,30.8c-1.2-1.5-2.5-2.8-3.9-3.9c1.7-0.5,3.4-1.3,5-2.4c-1.6-1-3.3-1.8-5-2.3c1.4-1.1,2.7-2.4,3.9-3.9
		c-1.9-0.4-3.7-0.6-5.5-0.5c1-1.5,1.7-3.2,2.3-5c-1.9,0.2-3.7,0.7-5.3,1.4c0.4-1.7,0.5-3.6,0.4-5.5c-1.7,0.9-3.2,1.9-4.5,3.1
		c-0.2-1.8-0.7-3.6-1.5-5.3c-1.3,1.4-2.4,2.9-3.2,4.5c-0.8-1.6-1.9-3.1-3.2-4.5c-0.7,1.7-1.2,3.5-1.4,5.3c-1.3-1.2-2.9-2.3-4.6-3.1
		c-0.1,1.9,0.1,3.8,0.4,5.5c-1.6-0.7-3.4-1.1-5.3-1.4c0.6,1.8,1.3,3.5,2.3,5c-1.8-0.1-3.6,0.1-5.5,0.5c1.2,1.5,2.5,2.8,3.9,3.9
		c-1.7,0.5-3.4,1.3-5,2.4c1.6,1,3.3,1.8,5,2.3c-1.4,1.1-2.7,2.4-3.9,3.9c1.9,0.4,3.7,0.6,5.5,0.5c-1,1.5-1.7,3.2-2.3,5
		c1.9-0.2,3.7-0.7,5.3-1.4c-0.4,1.7-0.5,3.6-0.4,5.5c1.7-0.9,3.2-1.9,4.5-3.1c0.2,1.8,0.7,3.6,1.5,5.3c1.3-1.4,2.4-2.9,3.2-4.5
		c0.8,1.6,1.9,3.1,3.2,4.5c0.7-1.7,1.2-3.5,1.5-5.3c1.3,1.2,2.9,2.3,4.6,3.1c0.1-1.9-0.1-3.8-0.4-5.5c1.6,0.7,3.5,1.1,5.3,1.4
		c-0.6-1.8-1.3-3.5-2.3-5C1173.6,31.4,1175.5,31.2,1177.3,30.8z"/>
	<path id="_x0032_" class="st9" d="M1169.2,24.6c1.5-0.6,2.9-1.3,4.2-2.4c-1.6-0.5-3.2-0.8-4.8-0.8c1.2-1,2.3-2.3,3.2-3.7
		c-1.7,0.1-3.3,0.4-4.8,0.9c0.8-1.4,1.4-2.9,1.7-4.5c-1.5,0.6-2.9,1.5-4.2,2.5c0.3-1.6,0.3-3.2,0.1-4.9c-1.2,1.1-2.3,2.4-3.1,3.8
		c-0.3-1.6-0.8-3.1-1.6-4.6c-0.8,1.5-1.3,3-1.6,4.6c-0.8-1.4-1.8-2.6-3.1-3.8c-0.2,1.7-0.2,3.3,0.1,4.9c-1.2-1-2.6-1.9-4.2-2.5
		c0.4,1.6,0.9,3.2,1.7,4.5c-1.5-0.5-3.1-0.8-4.8-0.9c0.9,1.4,2,2.6,3.2,3.7c-1.6,0-3.2,0.3-4.8,0.8c1.3,1,2.7,1.8,4.2,2.3
		c-1.5,0.6-2.9,1.3-4.2,2.4c1.6,0.5,3.2,0.8,4.8,0.8c-1.2,1-2.3,2.3-3.2,3.7c1.7-0.1,3.3-0.4,4.8-0.9c-0.8,1.4-1.4,2.9-1.7,4.5
		c1.5-0.6,2.9-1.5,4.2-2.5c-0.3,1.6-0.3,3.2-0.1,4.8c1.2-1.1,2.3-2.4,3.1-3.8c0.3,1.6,0.8,3.1,1.6,4.6c0.8-1.5,1.3-3,1.6-4.6
		c0.8,1.4,1.8,2.6,3.1,3.8c0.2-1.7,0.2-3.3-0.1-4.8c1.2,1,2.6,1.9,4.2,2.5c-0.4-1.6-0.9-3.2-1.7-4.5c1.5,0.5,3.1,0.8,4.8,0.9
		c-0.9-1.4-2-2.6-3.2-3.7c1.6,0,3.2-0.3,4.8-0.8C1172.1,25.9,1170.7,25.1,1169.2,24.6z"/>
	<path id="_x0031_" class="st4" d="M1164.7,25.4c1.5,0,3.1-0.3,4.5-0.8c-1.5-0.5-3-0.8-4.5-0.8c1.5-0.5,2.8-1.3,4-2.3
		c-1.5,0-3.1,0.2-4.5,0.8c1.2-1,2.2-2.2,2.9-3.5c-1.5,0.5-2.8,1.3-4,2.3c0.8-1.3,1.3-2.8,1.5-4.3c-1.2,1-2.2,2.2-3,3.5
		c0.3-1.5,0.2-3.1,0-4.6c-0.8,1.3-1.3,2.8-1.6,4.3c-0.3-1.5-0.8-3-1.6-4.3c-0.3,1.5-0.3,3.1,0,4.6c-0.8-1.3-1.8-2.5-3-3.5
		c0.3,1.5,0.8,3,1.5,4.3c-1.2-1-2.5-1.7-4-2.3c0.8,1.3,1.7,2.5,2.9,3.5c-1.5-0.5-3-0.8-4.5-0.8c1.2,1,2.5,1.8,4,2.3
		c-1.5,0-3.1,0.3-4.5,0.8c1.5,0.5,3,0.8,4.5,0.8c-1.5,0.5-2.8,1.3-4,2.3c1.5,0,3.1-0.2,4.5-0.8c-1.2,1-2.2,2.2-2.9,3.5
		c1.5-0.5,2.8-1.3,4-2.3c-0.8,1.3-1.3,2.8-1.5,4.3c1.2-1,2.2-2.2,3-3.5c-0.3,1.5-0.2,3.1,0,4.6c0.8-1.3,1.3-2.8,1.6-4.3
		c0.3,1.5,0.8,3,1.6,4.3c0.3-1.5,0.3-3.1,0-4.6c0.8,1.3,1.8,2.5,3,3.5c-0.3-1.5-0.8-3-1.5-4.3c1.2,1,2.5,1.7,4,2.3
		c-0.8-1.3-1.7-2.5-2.9-3.5c1.5,0.5,3,0.8,4.5,0.8C1167.5,26.7,1166.1,25.9,1164.7,25.4z"/>
</g>
</svg>
