<svg xmlns="http://www.w3.org/2000/svg" viewBox="0 0 24 24">
  <path fill="none" stroke="#2F2B2C" stroke-width=".6" d="M8.39271348 17.5165646c-1.05285056-.4463354-2.22196184-1.001475-2.3203363-1.3469481v-.3621511c.21788723-.24540504.39024578-.5877014.4926853-.98797368.2439036-.18901747.30650552-.5781711.10325252-.852167v-.81166327c0-.83787157-.4260183-1.4120717-1.39756766-1.4120717-.946346 0-1.39756766.57420013-1.39756766 1.4120717v.81166326c-.203253.27399593-.13983806.66314955.10325253.85137283.1016265.40106648.27398506.74336283.4934983.98876787v.3621511c-.09837445.3454731-1.26748573.8998185-2.3211493 1.3469481C2.05934988 17.5546857 2 17.6507828 2 17.7579986v.906172c0 .1429544.10406554.2589063.23170843.2589063h6.07807783c.1284559 0 .23252143-.1159519.23252143-.2589063v-.906172c0-.1072158-.0601629-.2033129-.14959422-.241434zm7.26923082 0c-1.0536636-.4463354-2.2219619-1.001475-2.3203363-1.3469481v-.3621511c.2178872-.24540504.3902457-.5877014.4918722-.98797368.2447166-.18822328.3065056-.5781711.1032526-.852167v-.81166327c0-.83787157-.4252053-1.4120717-1.3967547-1.4120717-.947159 0-1.39756765.57420013-1.39756765 1.4120717v.81166326c-.203253.27399593-.13983806.66314955.10325253.85216702.1016265.4002723.27398505.74256864.4934983.98797368v.3621511c-.09837446.3454731-1.26829875.9006127-2.3211493 1.3469481-.08943133.0381211-.1487812.1342182-.1487812.241434v.9069662c0 .1421602.10406553.2581121.2317084.2581121H15.579017c.1284559 0 .2325215-.1159519.2325215-.2581121v-.9069662c0-.1072158-.0601629-.2033129-.1495942-.241434zm-3.80809815-5.77297486c-.98082565-.44455657-2.0698138-.99633995-2.16147263-1.34033516v-.36080373c.20362987-.24401345.3640963-.58424123.45905586-.98300906.2280045-.18779183.2848787-.57496756.09597517-.84767143v-.80738892C10.24740455 6.57062053 9.85131653 6 8.94615385 6c-.88180365 0-1.3015046.57062053-1.3015046 1.40438145v.80767872c-.18864963.27212426-.13202935.6593.09597516.84738162.09495958.39876782.2556799.7389956.45930977.98300905v.36080373c-.09140492.3434156-1.4101958.8954888-2.39102144 1.34033516m13.31416417 0c-.9808256-.44455657-2.0698138-.99633995-2.1614726-1.34033516v-.36080373c.2036299-.24401345.3640963-.58424123.4590558-.98300906.2280046-.18779183.2848787-.57496756.0959752-.84767143v-.80738892C17.5166353 6.57062053 17.1205473 6 16.2153846 6c-.8818036 0-1.3015046.57062053-1.3015046 1.40438145v.80767872c-.1886496.27212426-.1320293.6593.0959752.84738162.0949595.39876782.2556799.7389956.4593097.98300905v.36080373c-.0914049.3434156-1.3675424.8954888-2.348368 1.34033516m9.7304034 5.77297486c-1.0537945-.4463354-2.2230511-1.001475-2.3206247-1.3469481v-.3621511c.2179143-.24540504.3902943-.5877014.4919334-.98797368.2447471-.18901747.3065437-.5781711.1032654-.852167v-.81166327c0-.83787157-.4252581-1.4120717-1.3969282-1.4120717-.9472768 0-1.3985545.57420013-1.3985545 1.4120717v.81166326c-.2024652.27399593-.1398555.66314955.1032653.85137283.1024523.40106648.2748323.74336283.4935597.98876787v.3621511c-.0975736.3454731-1.2676433.8998185-2.3206247 1.3469481-.0894424.0381211-.1487997.1342182-.1487997.241434v.906172c0 .1429544.1032654.2589063.2317372.2589063h6.0780202c.1292849 0 .2325503-.1159519.2325503-.2589063v-.906172c0-.1072158-.0601704-.2033129-.1487997-.241434z" stroke-linecap="round" stroke-linejoin="round"/>
</svg>
