<svg xmlns="http://www.w3.org/2000/svg" viewBox="0 0 24 24">
  <path fill="none" stroke="#2F2B2C" stroke-width=".6" d="M16.05187523 14.10540958c-.12114464-.15498525-.34384984-.18650352-.5059792-.07166594 0 0-1.16044253.87406276-1.23661038.92850555-.01868567.0143997-.03939165.02557025-.06211787.0335117-1.1447558.40676726-4.5336087-4.18522352-3.6957854-4.86756723l1.24185865-.93680432c.1606139-.12217834.1891912-.35000102.06707246-.50689456L8.6764403 4.5833165c-.05896697-.075805-.14639514-.12648626-.24274974-.13891333-.0963546-.01242707-.19323034.01383587-.27042605.07172975-2.03596418 1.53866094-5.169634 2.95327244.80148793 10.64605523 5.89279996 7.5925413 8.13501448 5.2647747 10.2328175 3.52264642.15056722-.1240082.17389613-.34353203.05446497-.49771075l-3.20015967-4.08171424z" stroke-linecap="round" stroke-linejoin="round"/>
</svg>
