<svg xmlns="http://www.w3.org/2000/svg" viewBox="0 0 24 24">
  <g fill="none" fill-rule="evenodd" stroke="#2F2B2C" stroke-width=".6" stroke-linecap="round" stroke-linejoin="round">
    <path d="M10 17h4.8M10 19h4.8M8.05962 6.76504h-3.2664c-.8232 0-1.4934.6804-1.4934 1.5168v5.3244c0 .8376.6702 1.5174 1.4934 1.5174h14.4348c.8232 0 1.4928-.6798 1.4928-1.5174v-5.3244c0-.8364-.6696-1.5168-1.4928-1.5168h-2.6868m-8.4816 8.67848v4.866c0 .216.1668.3906.3726.3906h7.7364c.2064 0 .3726-.1746.3726-.3906v-4.8666"/>
    <path d="M16.5414 9.74392v-2.9814c0-.1026-.0414-.2016-.114-.2736l-1.6044-2.0136c-.0714-.0708-.168-.1104-.2682-.1104H8.442c-.2112 0-.3822.1716-.3822.384v4.995h8.4816z"/>
  </g>
</svg>
