<svg xmlns="http://www.w3.org/2000/svg" viewBox="0 0 24 24">
  <path fill="none" fill-rule="evenodd" stroke="#2F2B2C" stroke-width=".6" d="M7.46150838 15.7271117h-3.0220534C4.19673615 15.7271117 4 15.57089873 4 15.33066213V9.69397798c0-.2408283.19673614-.42721876.439455-.42721876h2.94056504l4.23855793-3.0562118c1.04945344-.66390507 1.11115176.45443768 1.11115176.45443768v11.6846108s-.06169832 1.101183-1.11115176.4378696l-4.1570696-3.0603538zm8.94389702.13495727c.8466182-.8415471 1.3783784-2.03442542 1.3783784-3.36206897 0-1.32764355-.5317602-2.52052186-1.3783784-3.36206897m2.2972973 8.06896557C20.1155743 15.9633829 21 14.21583638 21 12.27586207c0-1.9399743-.8844257-3.68752084-2.2972973-4.93103448" stroke-linecap="round" stroke-linejoin="round"/>
</svg>
