<svg xmlns="http://www.w3.org/2000/svg" viewBox="0 0 24 24">
  <path fill="none" fill-rule="evenodd" stroke="#2F2B2C" stroke-width=".6" d="M21.2107932 7.1570248l-3.8682966 2.407662C17.1447724 9.66845912 17 9.90266748 17 10.15993636v2.68006434c0 .25726888.1413925.49003596.3391167.59524957l3.8587202 2.407662C21.567936 16.0374854 22 15.708873 22 15.24766268V7.75227436c0-.44607685-.4117846-.79342587-.7892068-.59524957zM15.5 17h-12c-.828 0-1.5-.6570667-1.5-1.46666667V7.46666667C2 6.65706667 2.672 6 3.5 6h12c.828 0 1.5.65706667 1.5 1.46666667v8.06666666C17 16.3429333 16.328 17 15.5 17z" stroke-linecap="round" stroke-linejoin="round"/>
</svg>
